<svg width="225" height="202" viewBox="0 0 225 202" fill="none" xmlns="http://www.w3.org/2000/svg">
<path d="M101.52 67.2643C103.625 65.2154 107.041 65.2154 109.089 67.32ZM44.3863 105.902C44.3863 102.943 46.8333 100.496 49.7926 100.496C52.7519 100.496 55.1989 102.943 55.1989 105.902C55.1989 129.348 64.7032 150.516 80.0674 165.881C95.4317 181.245 116.6 190.749 140.046 190.749C155.923 190.749 170.775 186.367 183.464 178.798C194.789 172.028 204.348 162.752 211.461 151.655L181.301 141.583C176.635 146.989 170.889 151.427 164.458 154.67C157.061 158.37 148.81 160.474 140.046 160.474C137.087 160.474 134.64 158.027 134.64 155.068C134.64 152.112 137.087 149.665 140.046 149.665C147.101 149.665 153.76 148.014 159.678 145.055C165.767 141.981 171.059 137.544 175.157 132.079C176.521 130.258 178.912 129.462 181.189 130.202L221.021 143.459C221.419 143.573 221.762 143.688 222.104 143.916C224.721 145.338 225.69 148.582 224.323 151.198C216.127 166.393 203.895 179.196 189.04 188.018C174.7 196.554 157.972 201.503 140.102 201.503C113.697 201.503 89.7971 190.805 72.498 173.506C55.0848 156.207 44.3863 132.307 44.3863 105.902ZM224.264 60.5496C225.69 63.1664 224.721 66.4682 222.046 67.8322C221.706 68.0049 221.308 68.1747 220.966 68.2888L181.529 81.49C179.31 82.4003 176.635 81.7739 175.098 79.7249C171.003 74.263 165.711 69.767 159.62 66.7521C153.76 63.7928 147.101 62.1419 139.988 62.1419C127.867 62.1419 116.943 67.036 109.031 74.945C101.122 82.8569 96.2279 93.7808 96.2279 105.902C96.2279 108.861 93.7808 111.308 90.8215 111.308C87.8623 111.308 85.4152 108.861 85.4152 105.902C85.4152 90.8801 91.5036 77.2223 101.406 67.32L101.464 67.2643C111.364 57.4176 124.966 51.3293 139.988 51.3293C148.751 51.3293 157.061 53.4368 164.4 57.1337C170.889 60.3769 176.579 64.8729 181.245 70.2236L211.406 60.1515C204.293 49.1106 194.674 39.779 183.408 33.0058C170.716 25.4393 155.864 21.0574 139.988 21.0574C137.028 21.0574 134.581 18.6104 134.581 15.6511C134.581 12.6918 137.028 10.2448 139.988 10.2448C157.858 10.2448 174.586 15.1945 188.929 23.7298C203.781 32.6077 216.016 45.3551 224.264 60.5496Z" fill="white"/>
<path d="M100.952 27.1457C103.911 27.1457 106.356 29.5928 106.356 32.5521C106.356 35.5113 103.911 37.9584 100.952 37.9584H64.873C61.9137 37.9584 59.4666 35.5113 59.4666 32.5521C59.4666 29.5928 61.9137 27.1457 64.873 27.1457H100.952Z" fill="white"/>
<path d="M110.682 60.9477C113.641 60.9477 116.088 63.3947 116.088 66.354C116.088 69.3133 113.641 71.7603 110.682 71.7603H63.7343C60.775 71.7603 58.328 69.3133 58.328 66.354C58.328 63.3947 60.775 60.9477 63.7343 60.9477H110.682Z" fill="white"/>
<path d="M90.8215 100.496C93.7808 100.496 96.2279 102.943 96.2279 105.902C96.2279 108.861 93.7808 111.308 90.8215 111.308H27.5439C24.5846 111.308 22.1375 108.861 22.1375 105.902C22.1375 102.943 24.5846 100.496 27.5439 100.496H90.8215Z" fill="white"/>
<path d="M132.931 149.834C131.909 148.81 130.428 148.184 128.836 148.184C127.24 148.184 125.818 148.81 124.793 149.89C123.769 150.915 123.087 152.396 123.087 153.932C123.087 155.525 123.713 156.947 124.793 157.972C125.818 158.996 127.299 159.623 128.891 159.623C130.486 159.623 131.909 158.996 132.989 157.972C134.014 156.947 134.64 155.469 134.64 153.874C134.581 152.281 133.955 150.859 132.931 149.834ZM128.836 137.315C133.387 137.315 137.541 139.192 140.559 142.151C143.573 145.169 145.394 149.264 145.394 153.818C145.394 158.37 143.518 162.523 140.559 165.483C137.541 168.5 133.443 170.321 128.891 170.321C124.34 170.321 120.186 168.442 117.227 165.483C114.209 162.468 112.388 158.37 112.388 153.76C112.388 149.208 114.267 145.054 117.227 142.037C120.127 139.192 124.281 137.315 128.836 137.315Z" fill="white"/>
<path d="M131.567 12.5191C130.542 11.4976 129.064 10.8712 127.469 10.8712C125.876 10.8712 124.454 11.4976 123.429 12.5777C122.405 13.6022 121.723 15.0803 121.723 16.6171C121.723 18.2123 122.346 19.6349 123.429 20.6594C124.454 21.6809 125.932 22.3073 127.527 22.3073C129.12 22.3073 130.542 21.6809 131.622 20.6594C132.647 19.6349 133.273 18.1538 133.273 16.5614C133.218 15.0247 132.591 13.5436 131.567 12.5191ZM127.469 0C132.02 0 136.177 1.87919 139.192 4.83847C142.207 7.85336 144.03 11.9513 144.03 16.5029C144.03 21.0574 142.151 25.211 139.192 28.1702C136.177 31.1851 132.079 33.0058 127.527 33.0058C122.973 33.0058 118.819 31.1295 115.86 28.1702C112.845 25.1524 111.024 21.0574 111.024 16.4473C111.024 11.8957 112.901 7.73921 115.86 4.72431C118.764 1.87919 122.917 0 127.469 0Z" fill="white"/>
<path d="M20.4867 102.032C19.4622 101.008 17.9811 100.384 16.3887 100.384C14.7964 100.384 13.3738 101.008 12.3494 102.091C11.3249 103.115 10.6429 104.593 10.6429 106.13C10.6429 107.722 11.2663 109.145 12.3494 110.17C13.3738 111.194 14.852 111.82 16.4473 111.82C18.0396 111.82 19.4622 111.194 20.5423 110.17C21.5667 109.145 22.1931 107.667 22.1931 106.075C22.1931 104.538 21.5111 103.057 20.4867 102.032ZM16.4473 89.5716C20.9989 89.5716 25.1524 91.4479 28.1673 94.4072C31.1851 97.425 33.0058 101.52 33.0058 106.075C33.0058 110.626 31.1266 114.78 28.1673 117.739C25.1524 120.754 21.0545 122.577 16.5029 122.577C11.9513 122.577 7.79482 120.698 4.83847 117.739C1.82065 114.724 0 110.626 0 106.016C0 101.464 1.87919 97.3108 4.83847 94.293C7.68359 91.3923 11.8371 89.5716 16.4473 89.5716Z" fill="white"/>
<path d="M56.3376 62.3117C55.3131 61.2872 53.832 60.6638 52.2397 60.6638C50.6473 60.6638 49.2248 61.2872 48.2003 62.3703C47.1758 63.3947 46.4909 64.8729 46.4909 66.4096C46.4909 68.0049 47.1173 69.4275 48.2003 70.4519C49.2248 71.4735 50.7029 72.0999 52.2953 72.0999C53.8905 72.0999 55.3131 71.4735 56.3932 70.4519C57.4177 69.4275 58.0441 67.9464 58.0441 66.354C57.9885 64.7588 57.3621 63.3362 56.3376 62.3117ZM52.2397 49.7926C56.7913 49.7926 60.9448 51.6718 63.9626 54.6311C66.9775 57.646 68.7982 61.7439 68.7982 66.2955C68.7982 70.85 66.9219 75.0036 63.9626 77.9628C60.9448 80.9777 56.8498 82.7984 52.2953 82.7984C47.7437 82.7984 43.5901 80.9221 40.6308 77.9628C37.616 74.945 35.7953 70.85 35.7953 66.2399C35.7953 61.6883 37.6716 57.5318 40.6308 54.5169C43.5345 51.6718 47.688 49.7926 52.2397 49.7926Z" fill="white"/>
</svg>
